<svg xmlns="http://www.w3.org/2000/svg" width="184.191" height="166.597" viewBox="0 0 184.191 166.597">
  <g id="Group_50" data-name="Group 50" transform="translate(-95 -301)">
    <g id="fav" transform="translate(69.075 252.095)">
      <path id="Path_6" data-name="Path 6" d="M208.749,93.825c-5.451-27.017-24.97-44.474-49.725-44.474-13.048,0-27.177,5.053-40.986,14.637-14-10.011-27.873-15.083-41.266-15.083-24.9,0-44.33,17.647-49.508,44.95C19.676,133.4,43.738,185.9,114.6,214.013q.083.033.168.061a8.914,8.914,0,0,0,6.484,0c.064-.021.127-.045.189-.07,32.51-13.171,57.726-32.478,72.922-55.833,13.349-20.516,18.46-43.36,14.391-64.323Zm-19.755,60.854c-14.462,22.227-38.618,40.675-69.857,53.349a2.654,2.654,0,0,1-2.267,0c-67.392-26.773-90.406-76.019-83.316-112.97,2.276-12,7.552-22.065,15.257-29.1a40.722,40.722,0,0,1,27.96-10.642c12.581,0,25.811,5.111,39.322,15.191a3.2,3.2,0,0,0,3.8.025c13.313-9.662,26.845-14.769,39.133-14.769a41.06,41.06,0,0,1,28,10.6c7.717,6.972,13.058,16.906,15.445,28.73C206.214,114.4,201.429,135.567,188.994,154.679Z" fill="#ddd"/>
      <path id="Path_7" data-name="Path 7" d="M120.928,107.934c-17.26,0-28.809,11.854-32.519,33.381a3.2,3.2,0,1,0,6.31,1.086c2.207-12.8,8.545-28.063,26.208-28.063a3.2,3.2,0,1,0,0-6.4Z" transform="translate(-37.447 -35.403)" fill="#ddd"/>
    </g>
    <path id="Path_19" data-name="Path 19" d="M2857,466.779l14.71-51.928L2854.217,395.4l-6.772-7.531,24.266-33.391-24.266-16.2L2857,320.375" transform="translate(-2670)" fill="none" stroke="#dedede" stroke-width="6"/>
  </g>
</svg>
