<svg xmlns="http://www.w3.org/2000/svg" width="39.5" height="35.308" viewBox="0 0 39.5 35.308">
  <path id="heart_-fill" data-name="heart -fill" d="M34.985,3.309A10.218,10.218,0,0,0,27.385,0a9.56,9.56,0,0,0-5.971,2.061A12.216,12.216,0,0,0,19,4.582a12.209,12.209,0,0,0-2.414-2.521A9.558,9.558,0,0,0,10.615,0a10.219,10.219,0,0,0-7.6,3.309A11.878,11.878,0,0,0,0,11.42c0,3.214,1.2,6.156,3.769,9.258A80.363,80.363,0,0,0,13.2,29.534c1.307,1.114,2.789,2.377,4.328,3.722a2.231,2.231,0,0,0,2.937,0c1.539-1.346,3.021-2.609,4.329-3.724a80.327,80.327,0,0,0,9.434-8.855C36.8,17.576,38,14.634,38,11.42A11.877,11.877,0,0,0,34.985,3.309Zm0,0" transform="translate(0.75 0.75)" fill="none" stroke="#fefefe" stroke-width="1.5"/>
</svg>
