<svg xmlns="http://www.w3.org/2000/svg" width="40" height="31.667" viewBox="0 0 40 31.667">
  <g id="list" transform="translate(0 -53.333)">
    <g id="Grupo_5" data-name="Grupo 5" transform="translate(11.667 56.666)">
      <g id="Grupo_4" data-name="Grupo 4">
        <path id="Caminho_9" data-name="Caminho 9" d="M176.833,96H150.166a.833.833,0,1,0,0,1.667h26.667a.833.833,0,1,0,0-1.667Z" transform="translate(-149.333 -96)" fill="#fefefe"/>
      </g>
    </g>
    <g id="Grupo_7" data-name="Grupo 7" transform="translate(11.667 68.333)">
      <g id="Grupo_6" data-name="Grupo 6">
        <path id="Caminho_10" data-name="Caminho 10" d="M176.833,245.333H150.166a.833.833,0,1,0,0,1.667h26.667a.833.833,0,1,0,0-1.667Z" transform="translate(-149.333 -245.333)" fill="#fefefe"/>
      </g>
    </g>
    <g id="Grupo_9" data-name="Grupo 9" transform="translate(11.667 80)">
      <g id="Grupo_8" data-name="Grupo 8">
        <path id="Caminho_11" data-name="Caminho 11" d="M176.833,394.667H150.166a.833.833,0,1,0,0,1.667h26.667a.833.833,0,1,0,0-1.667Z" transform="translate(-149.333 -394.667)" fill="#fefefe"/>
      </g>
    </g>
    <g id="Grupo_11" data-name="Grupo 11" transform="translate(0 76.666)">
      <g id="Grupo_10" data-name="Grupo 10">
        <path id="Caminho_12" data-name="Caminho 12" d="M4.167,352a4.167,4.167,0,1,0,4.167,4.167A4.171,4.171,0,0,0,4.167,352Zm0,6.667a2.5,2.5,0,1,1,2.5-2.5A2.5,2.5,0,0,1,4.167,358.667Z" transform="translate(0 -352)" fill="#fefefe"/>
      </g>
    </g>
    <g id="Grupo_13" data-name="Grupo 13" transform="translate(0 65)">
      <g id="Grupo_12" data-name="Grupo 12">
        <path id="Caminho_13" data-name="Caminho 13" d="M4.167,202.667a4.167,4.167,0,1,0,4.167,4.167A4.171,4.171,0,0,0,4.167,202.667Zm0,6.667a2.5,2.5,0,1,1,2.5-2.5A2.5,2.5,0,0,1,4.167,209.334Z" transform="translate(0 -202.667)" fill="#fefefe"/>
      </g>
    </g>
    <g id="Grupo_15" data-name="Grupo 15" transform="translate(0 53.333)">
      <g id="Grupo_14" data-name="Grupo 14">
        <path id="Caminho_14" data-name="Caminho 14" d="M4.167,53.333A4.167,4.167,0,1,0,8.333,57.5,4.171,4.171,0,0,0,4.167,53.333Zm0,6.667a2.5,2.5,0,1,1,2.5-2.5A2.5,2.5,0,0,1,4.167,60Z" transform="translate(0 -53.333)" fill="#fefefe"/>
      </g>
    </g>
  </g>
</svg>
